<?xml version="1.0" encoding="UTF-8" standalone="no"?>
<svg width="13px" height="13px" viewBox="0 0 13 13" version="1.1" xmlns="http://www.w3.org/2000/svg" xmlns:xlink="http://www.w3.org/1999/xlink" xmlns:sketch="http://www.bohemiancoding.com/sketch/ns">
    <title>check</title>
    <description>Created with Sketch (http://www.bohemiancoding.com/sketch)</description>
    <defs></defs>
    <g id="Page-1" stroke="none" stroke-width="1" fill="none" fill-rule="evenodd" sketch:type="MSPage">
        <path d="M3.11144425,10.9999728 L2.60954105,10.2256959 C2.57132952,10.1654831 2.52956223,10.1053792 2.48776917,10.0454113 C2.46280155,10.0095502 2.4378597,9.97368922 2.41348471,9.93739287 L2.01727518,9.3636982 C1.97746613,9.30519958 1.93497738,9.24708187 1.89233404,9.18899137 C1.86589774,9.15280385 1.83935837,9.11675237 1.8133601,9.08004789 L1.6076156,8.7968057 C1.4876989,8.63028868 1.35386835,8.45139172 1.18710838,8.23472914 L1.10189898,8.12295595 C0.990794377,7.97714472 0.875927882,7.82635431 0.759180442,7.68138655 L0.543541658,7.40973526 C0.496286129,7.34846135 0.445835568,7.28721465 0.395127344,7.2258047 L0.323445292,7.13841047 L0.103529291,6.87271787 C0.103529291,6.87271787 0.0192732477,6.77210024 -2.66453526e-15,6.74924496 C-2.66453526e-15,6.74924496 -0.408813466,5.99006891 -2.66453526e-15,5.54700279 C0.408813461,5.10393667 1.06639292,5.43857644 1.06639292,5.43857644 C1.09664264,5.46124126 1.21016929,5.54700297 1.21016929,5.54700297 L1.5021023,5.76962425 C1.53425874,5.79468343 1.56824458,5.82074933 1.6022562,5.84676081 C1.66419856,5.8941583 1.72603786,5.94139254 1.78566125,5.99006884 L2.07318821,6.21908416 C2.22149946,6.33594537 2.36857392,6.45794901 2.51075278,6.57598019 L2.63574546,6.67959078 C2.84471075,6.85168558 3.02561646,7.00514244 3.18912987,7.14896743 C3.18912987,7.14896743 3.52788039,7.44393655 3.55869697,7.470465 C3.61899029,7.52246075 3.67941243,7.57453813 3.73759291,7.62895546 L4.0722208,7.9356243 L4.20514953,7.76859032 C4.3487713,7.58800642 4.49450591,7.40853808 4.64219876,7.22906974 C5.20926512,6.54028243 5.77970687,5.88866215 6.33770347,5.29230267 C6.97874508,4.60716132 7.58229663,4.01480151 8.18278197,3.48129404 C8.34325495,3.33831252 8.5088039,3.1956575 8.67512585,3.05705657 L8.92902769,2.84874704 L9.1866399,2.64778385 C9.2427333,2.60327048 9.30042421,2.56063451 9.35821818,2.5179169 L9.44917348,2.45027617 C9.53427982,2.38715207 9.62286461,2.32313008 9.71322729,2.26114875 C9.77784863,2.21515977 10.5180014,1.64459771 11.197998,1.1998291 C11.456229,1.03092675 11.7720338,0.8815918 12.3115846,0.540954588 C12.8511354,0.200317378 12.9758228,0.85638677 12.8449708,0.994262693 C12.4765626,1.38244634 11.924494,2.01157642 11.7097169,2.26114871 C11.1248782,2.94073491 10.0155641,4.26849367 9.71322727,4.60437012 C9.21621619,5.15651692 8.52513978,6.12004462 8.01182208,6.83375507 C7.55987988,7.46083313 7.11600256,8.12241178 6.65501636,8.85609338 C6.43883648,9.19954834 6.22494981,9.55029521 6.01938568,9.89853889 L5.71529094,10.4241286 L5.56754655,10.6876445 C5.53781215,10.7408919 4.89887963,11.6829671 4.83789062,11.7874756 C4.83789062,11.7874756 4.46789562,12.1768189 4.28784191,12.1768189 C4.10112972,12.1768189 3.73759294,11.7874756 3.73759294,11.7874756 L3.11144425,10.9999728 Z" id="Shape" fill="#000000" sketch:type="MSShapeGroup"></path>
    </g>
</svg>